<?xml version="1.0" encoding="utf-8"?>
<svg version="1.1" xmlns:xlink="http://www.w3.org/1999/xlink" width="12px" height="12px" viewBox="132 237.5  12 12" xmlns="http://www.w3.org/2000/svg">
  <path d="M 138 237.5  C 141.36 237.5  144 240.14  144 243.5  C 144 246.86  141.36 249.5  138 249.5  C 134.64 249.5  132 246.86  132 243.5  C 132 240.14  134.64 237.5  138 237.5  Z " fill-rule="nonzero" fill="#ffffff" stroke="none" />
  <path d="M 138 238  C 141.08 238  143.5 240.42  143.5 243.5  C 143.5 246.58  141.08 249  138 249  C 134.92 249  132.5 246.58  132.5 243.5  C 132.5 240.42  134.92 238  138 238  Z " stroke-width="1" stroke="#d9001b" fill="none" />
  <path d="M 138 246.5  C 136.32 246.5  135 245.18  135 243.5  C 135 241.82  136.32 240.5  138 240.5  C 139.68 240.5  141 241.82  141 243.5  C 141 245.18  139.68 246.5  138 246.5  " fill-rule="nonzero" fill="#d9001b" stroke="none" />
</svg>