<?xml version="1.0" encoding="utf-8"?>
<svg version="1.1" xmlns:xlink="http://www.w3.org/1999/xlink" width="12px" height="12px" viewBox="16 237.5  12 12" xmlns="http://www.w3.org/2000/svg">
  <path d="M 22 237.5  C 25.36 237.5  28 240.14  28 243.5  C 28 246.86  25.36 249.5  22 249.5  C 18.64 249.5  16 246.86  16 243.5  C 16 240.14  18.64 237.5  22 237.5  Z " fill-rule="nonzero" fill="#ffffff" stroke="none" />
  <path d="M 22 238  C 25.08 238  27.5 240.42  27.5 243.5  C 27.5 246.58  25.08 249  22 249  C 18.92 249  16.5 246.58  16.5 243.5  C 16.5 240.42  18.92 238  22 238  Z " stroke-width="1" stroke="#d9001b" fill="none" />
  <path d="M 22 246.5  C 20.32 246.5  19 245.18  19 243.5  C 19 241.82  20.32 240.5  22 240.5  C 23.68 240.5  25 241.82  25 243.5  C 25 245.18  23.68 246.5  22 246.5  " fill-rule="nonzero" fill="#d9001b" stroke="none" />
</svg>