<?xml version="1.0" encoding="utf-8"?>
<svg version="1.1" xmlns:xlink="http://www.w3.org/1999/xlink" width="31px" height="26px" xmlns="http://www.w3.org/2000/svg">
  <g transform="matrix(1 0 0 1 -936 -450 )">
    <path d="M 25.8737221888154 14.2741477272727  C 26.1222689917819 14.3726325757576  26.2465423932652 14.5511363636364  26.2465423932652 14.8096590909091  L 26.2465423932652 20.6818181818182  C 26.2465423932652 22.1467803030303  25.7214872719984 23.399384469697  24.6713770294648 24.4396306818182  C 23.6212667869312 25.4798768939394  22.356784926839 26  20.8779314491882 26  L 5.36861094407697 26  C 3.88975746642614 26  2.62527560633393 25.4798768939394  1.57516536380036 24.4396306818182  C 0.525055121266787 23.399384469697  0 22.1467803030303  0 20.6818181818182  L 0 5.31818181818182  C 0 3.85321969696969  0.525055121266787 2.60061553030303  1.57516536380036 1.56036931818182  C 2.62527560633393 0.520123106060604  3.88975746642614 0  5.36861094407697 0  L 20.8779314491882 0  C 21.6608538785328 0  22.3878532772099 0.153882575757574  23.0589296452195 0.461647727272726  C 23.2453397474444 0.547821969696968  23.3571858087793 0.689393939393939  23.3944678292243 0.886363636363636  C 23.4317498496693 1.09564393939394  23.3758268190018 1.27414772727273  23.2266987372219 1.421875  L 22.3132892363199 2.32670454545455  C 22.1890158348366 2.4498106060606  22.0461014231309 2.51136363636364  21.8845460012026 2.51136363636364  C 21.8472639807577 2.51136363636364  21.7913409500902 2.49905303030303  21.7167769092002 2.47443181818182  C 21.4309480857887 2.40056818181818  21.1513329324514 2.36363636363636  20.8779314491882 2.36363636363636  L 5.36861094407697 2.36363636363636  C 4.54840649428743 2.36363636363636  3.846261775907 2.6529356060606  3.26217678893566 3.23153409090909  C 2.67809180196432 3.81013257575757  2.38604930847865 4.50568181818182  3 5.31818181818182  L 3 20.6818181818182  C 2.38604930847865 21.4943181818182  2.67809180196432 22.1898674242424  3.26217678893566 22.7684659090909  C 3.846261775907 23.3470643939394  4.54840649428743 23.6363636363636  5.36861094407697 23.6363636363636  L 20.8779314491882 23.6363636363636  C 21.6981358989778 23.6363636363636  22.4002806173582 23.3470643939394  22.9843656043295 22.7684659090909  C 23.5684505913009 22.1898674242424  23.8604930847865 21.4943181818182  23.8604930847865 20.6818181818182  L 23.8604930847865 15.9914772727273  C 23.8604930847865 15.8314393939394  23.916416115454 15.6960227272727  24.0282621767889 15.5852272727273  L 25.2212868310283 14.4034090909091  C 25.3455602325115 14.280303030303  25.4884746442173 14.21875  25.6500300661455 14.21875  C 25.7245941070355 14.21875  25.7991581479254 14.2372159090909  25.8737221888154 14.2741477272727  Z M 31 4.72727272727273  C 31 5.13352272727273  30.8508719182201 5.484375  30.5526157546603 5.77982954545455  L 15.3788334335538 20.8110795454545  C 15.080577269994 21.1065340909091  14.7263980757667 21.2542613636364  14.3162958508719 21.2542613636364  C 13.9061936259771 21.2542613636364  13.5520144317498 21.1065340909091  13.25375826819 20.8110795454545  L 5.23812387251954 12.8707386363636  C 4.93986770895971 12.5752840909091  4.7907396271798 12.2244318181818  4.7907396271798 11.8181818181818  C 4.7907396271798 11.4119318181818  4.93986770895971 11.0610795454545  5.23812387251954 10.765625  L 7.28863499699338 8.734375  C 7.58689116055322 8.43892045454546  7.94107035478052 8.29119318181818  8.35117257967529 8.29119318181818  C 8.76127480457006 8.29119318181818  9.11545399879735 8.43892045454546  9.41371016235719 8.734375  L 14.3162958508719 13.5909090909091  L 26.3770294648226 1.64346590909091  C 26.6752856283824 1.34801136363636  27.0294648226097 1.20028409090909  27.4395670475045 1.20028409090909  C 27.8496692723993 1.20028409090909  28.2038484666266 1.34801136363636  28.5021046301864 1.64346590909091  L 30.5526157546603 3.67471590909091  C 30.8508719182201 3.97017045454546  31 4.32102272727273  31 4.72727272727273  Z " fill-rule="nonzero" fill="#000000" stroke="none" transform="matrix(1 0 0 1 936 450 )" />
  </g>
</svg>