<?xml version="1.0" encoding="utf-8"?>
<svg version="1.1" xmlns:xlink="http://www.w3.org/1999/xlink" width="12px" height="12px" viewBox="135 156.5  12 12" xmlns="http://www.w3.org/2000/svg">
  <path d="M 141 156.5  C 144.36 156.5  147 159.14  147 162.5  C 147 165.86  144.36 168.5  141 168.5  C 137.64 168.5  135 165.86  135 162.5  C 135 159.14  137.64 156.5  141 156.5  Z " fill-rule="nonzero" fill="#ffffff" stroke="none" />
  <path d="M 141 157  C 144.08 157  146.5 159.42  146.5 162.5  C 146.5 165.58  144.08 168  141 168  C 137.92 168  135.5 165.58  135.5 162.5  C 135.5 159.42  137.92 157  141 157  Z " stroke-width="1" stroke="#797979" fill="none" />
  <path d="M 141 165.5  C 139.32 165.5  138 164.18  138 162.5  C 138 160.82  139.32 159.5  141 159.5  C 142.68 159.5  144 160.82  144 162.5  C 144 164.18  142.68 165.5  141 165.5  " fill-rule="nonzero" fill="#797979" stroke="none" />
</svg>