<?xml version="1.0" encoding="utf-8"?>
<svg version="1.1" xmlns:xlink="http://www.w3.org/1999/xlink" width="12px" height="12px" viewBox="244 156.5  12 12" xmlns="http://www.w3.org/2000/svg">
  <path d="M 250 156.5  C 253.36 156.5  256 159.14  256 162.5  C 256 165.86  253.36 168.5  250 168.5  C 246.64 168.5  244 165.86  244 162.5  C 244 159.14  246.64 156.5  250 156.5  Z " fill-rule="nonzero" fill="#ffffff" stroke="none" />
  <path d="M 250 157  C 253.08 157  255.5 159.42  255.5 162.5  C 255.5 165.58  253.08 168  250 168  C 246.92 168  244.5 165.58  244.5 162.5  C 244.5 159.42  246.92 157  250 157  Z " stroke-width="1" stroke="#797979" fill="none" />
  <path d="M 250 165.5  C 248.32 165.5  247 164.18  247 162.5  C 247 160.82  248.32 159.5  250 159.5  C 251.68 159.5  253 160.82  253 162.5  C 253 164.18  251.68 165.5  250 165.5  " fill-rule="nonzero" fill="#797979" stroke="none" />
</svg>