<?xml version="1.0" encoding="utf-8"?>
<svg version="1.1" xmlns:xlink="http://www.w3.org/1999/xlink" width="83px" height="28px" xmlns="http://www.w3.org/2000/svg">
  <defs>
    <mask fill="white" id="clip3">
      <path d="M 0 4.2  L 1.63546798029557 2.08495752123937  L 3.76868708502893 0.825587206396801  L 7.05499999999999 0  L 83 0  L 83 28  L 7.05499999999999 28  L 3.76868708502893 27.272363818091  L 1.63546798029557 25.7331334332834  L 0 23.8  L 0 4.2  Z " fill-rule="evenodd" />
    </mask>
  </defs>
  <g transform="matrix(1 0 0 1 -1000 -212 )">
    <path d="M 0 4.2  L 1.63546798029557 2.08495752123937  L 3.76868708502893 0.825587206396801  L 7.05499999999999 0  L 83 0  L 83 28  L 7.05499999999999 28  L 3.76868708502893 27.272363818091  L 1.63546798029557 25.7331334332834  L 0 23.8  L 0 4.2  Z " fill-rule="nonzero" fill="#7f7f7f" stroke="none" transform="matrix(1 0 0 1 1000 212 )" />
    <path d="M 0 4.2  L 1.63546798029557 2.08495752123937  L 3.76868708502893 0.825587206396801  L 7.05499999999999 0  L 83 0  L 83 28  L 7.05499999999999 28  L 3.76868708502893 27.272363818091  L 1.63546798029557 25.7331334332834  L 0 23.8  L 0 4.2  Z " stroke-width="2" stroke="#7f7f7f" fill="none" transform="matrix(1 0 0 1 1000 212 )" mask="url(#clip3)" />
  </g>
</svg>