<?xml version="1.0" encoding="utf-8"?>
<svg version="1.1" xmlns:xlink="http://www.w3.org/1999/xlink" width="137px" height="28px" xmlns="http://www.w3.org/2000/svg">
  <defs>
    <mask fill="white" id="clip4">
      <path d="M 0 4.2  L 2.69950738916256 2.08495752123937  L 6.22060398372245 0.825587206396801  L 11.645 0  L 137 0  L 137 28  L 11.645 28  L 6.22060398372245 27.272363818091  L 2.69950738916256 25.7331334332834  L 0 23.8  L 0 4.2  Z " fill-rule="evenodd" />
    </mask>
  </defs>
  <g transform="matrix(1 0 0 1 -76 -212 )">
    <path d="M 0 4.2  L 2.69950738916256 2.08495752123937  L 6.22060398372245 0.825587206396801  L 11.645 0  L 137 0  L 137 28  L 11.645 28  L 6.22060398372245 27.272363818091  L 2.69950738916256 25.7331334332834  L 0 23.8  L 0 4.2  Z " fill-rule="nonzero" fill="#7f7f7f" stroke="none" transform="matrix(1 0 0 1 76 212 )" />
    <path d="M 0 4.2  L 2.69950738916256 2.08495752123937  L 6.22060398372245 0.825587206396801  L 11.645 0  L 137 0  L 137 28  L 11.645 28  L 6.22060398372245 27.272363818091  L 2.69950738916256 25.7331334332834  L 0 23.8  L 0 4.2  Z " stroke-width="2" stroke="#7f7f7f" fill="none" transform="matrix(1 0 0 1 76 212 )" mask="url(#clip4)" />
  </g>
</svg>