<?xml version="1.0" encoding="utf-8"?>
<svg version="1.1" xmlns:xlink="http://www.w3.org/1999/xlink" width="92px" height="28px" xmlns="http://www.w3.org/2000/svg">
  <defs>
    <mask fill="white" id="clip9">
      <path d="M 0 4.2  L 1.8128078817734 2.08495752123937  L 4.17733990147785 0.825587206396801  L 7.81999999999999 0  L 92 0  L 92 28  L 7.81999999999999 28  L 4.17733990147785 27.272363818091  L 1.8128078817734 25.7331334332834  L 0 23.8  L 0 4.2  Z " fill-rule="evenodd" />
    </mask>
  </defs>
  <g transform="matrix(1 0 0 1 -75 -100 )">
    <path d="M 0 4.2  L 1.8128078817734 2.08495752123937  L 4.17733990147785 0.825587206396801  L 7.81999999999999 0  L 92 0  L 92 28  L 7.81999999999999 28  L 4.17733990147785 27.272363818091  L 1.8128078817734 25.7331334332834  L 0 23.8  L 0 4.2  Z " fill-rule="nonzero" fill="#7f7f7f" stroke="none" transform="matrix(1 0 0 1 75 100 )" />
    <path d="M 0 4.2  L 1.8128078817734 2.08495752123937  L 4.17733990147785 0.825587206396801  L 7.81999999999999 0  L 92 0  L 92 28  L 7.81999999999999 28  L 4.17733990147785 27.272363818091  L 1.8128078817734 25.7331334332834  L 0 23.8  L 0 4.2  Z " stroke-width="2" stroke="#7f7f7f" fill="none" transform="matrix(1 0 0 1 75 100 )" mask="url(#clip9)" />
  </g>
</svg>