<?xml version="1.0" encoding="utf-8"?>
<svg version="1.1" xmlns:xlink="http://www.w3.org/1999/xlink" width="130px" height="27px" xmlns="http://www.w3.org/2000/svg">
  <defs>
    <mask fill="white" id="clip10">
      <path d="M 0 4.05  L 2.5615763546798 2.01049475262368  L 5.90276290426218 0.796101949025487  L 11.05 0  L 130 0  L 130 27  L 11.05 27  L 5.90276290426218 26.2983508245877  L 2.5615763546798 24.8140929535232  L 0 22.95  L 0 4.05  Z " fill-rule="evenodd" />
    </mask>
  </defs>
  <g transform="matrix(1 0 0 1 -77 -316 )">
    <path d="M 0 4.05  L 2.5615763546798 2.01049475262368  L 5.90276290426218 0.796101949025487  L 11.05 0  L 130 0  L 130 27  L 11.05 27  L 5.90276290426218 26.2983508245877  L 2.5615763546798 24.8140929535232  L 0 22.95  L 0 4.05  Z " fill-rule="nonzero" fill="#7f7f7f" stroke="none" transform="matrix(1 0 0 1 77 316 )" />
    <path d="M 0 4.05  L 2.5615763546798 2.01049475262368  L 5.90276290426218 0.796101949025487  L 11.05 0  L 130 0  L 130 27  L 11.05 27  L 5.90276290426218 26.2983508245877  L 2.5615763546798 24.8140929535232  L 0 22.95  L 0 4.05  Z " stroke-width="2" stroke="#7f7f7f" fill="none" transform="matrix(1 0 0 1 77 316 )" mask="url(#clip10)" />
  </g>
</svg>