<?xml version="1.0" encoding="utf-8"?>
<svg version="1.1" xmlns:xlink="http://www.w3.org/1999/xlink" width="99px" height="27px" xmlns="http://www.w3.org/2000/svg">
  <defs>
    <mask fill="white" id="clip12">
      <path d="M 0 4.05  L 1.95073891625616 2.01049475262368  L 4.49518098093812 0.796101949025487  L 8.41499999999998 0  L 99 0  L 99 27  L 8.41499999999998 27  L 4.49518098093812 26.2983508245877  L 1.95073891625616 24.8140929535232  L 0 22.95  L 0 4.05  Z " fill-rule="evenodd" />
    </mask>
  </defs>
  <g transform="matrix(1 0 0 1 -76 -151 )">
    <path d="M 0 4.05  L 1.95073891625616 2.01049475262368  L 4.49518098093812 0.796101949025487  L 8.41499999999998 0  L 99 0  L 99 27  L 8.41499999999998 27  L 4.49518098093812 26.2983508245877  L 1.95073891625616 24.8140929535232  L 0 22.95  L 0 4.05  Z " fill-rule="nonzero" fill="#7f7f7f" stroke="none" transform="matrix(1 0 0 1 76 151 )" />
    <path d="M 0 4.05  L 1.95073891625616 2.01049475262368  L 4.49518098093812 0.796101949025487  L 8.41499999999998 0  L 99 0  L 99 27  L 8.41499999999998 27  L 4.49518098093812 26.2983508245877  L 1.95073891625616 24.8140929535232  L 0 22.95  L 0 4.05  Z " stroke-width="2" stroke="#7f7f7f" fill="none" transform="matrix(1 0 0 1 76 151 )" mask="url(#clip12)" />
  </g>
</svg>