<?xml version="1.0" encoding="utf-8"?>
<svg version="1.1" xmlns:xlink="http://www.w3.org/1999/xlink" width="91px" height="27px" xmlns="http://www.w3.org/2000/svg">
  <defs>
    <mask fill="white" id="clip15">
      <path d="M 0 4.05  L 1.79310344827586 2.01049475262368  L 4.13193403298353 0.796101949025487  L 7.73499999999999 0  L 91 0  L 91 27  L 7.73499999999999 27  L 4.13193403298353 26.2983508245877  L 1.79310344827586 24.8140929535232  L 0 22.95  L 0 4.05  Z " fill-rule="evenodd" />
    </mask>
  </defs>
  <g transform="matrix(1 0 0 1 -1080 -152 )">
    <path d="M 0 4.05  L 1.79310344827586 2.01049475262368  L 4.13193403298353 0.796101949025487  L 7.73499999999999 0  L 91 0  L 91 27  L 7.73499999999999 27  L 4.13193403298353 26.2983508245877  L 1.79310344827586 24.8140929535232  L 0 22.95  L 0 4.05  Z " fill-rule="nonzero" fill="#7f7f7f" stroke="none" transform="matrix(1 0 0 1 1080 152 )" />
    <path d="M 0 4.05  L 1.79310344827586 2.01049475262368  L 4.13193403298353 0.796101949025487  L 7.73499999999999 0  L 91 0  L 91 27  L 7.73499999999999 27  L 4.13193403298353 26.2983508245877  L 1.79310344827586 24.8140929535232  L 0 22.95  L 0 4.05  Z " stroke-width="2" stroke="#7f7f7f" fill="none" transform="matrix(1 0 0 1 1080 152 )" mask="url(#clip15)" />
  </g>
</svg>