<?xml version="1.0" encoding="utf-8"?>
<svg version="1.1" xmlns:xlink="http://www.w3.org/1999/xlink" width="12px" height="12px" viewBox="848 46.5  12 12" xmlns="http://www.w3.org/2000/svg">
  <path d="M 854 46.5  C 857.36 46.5  860 49.14  860 52.5  C 860 55.86  857.36 58.5  854 58.5  C 850.64 58.5  848 55.86  848 52.5  C 848 49.14  850.64 46.5  854 46.5  Z " fill-rule="nonzero" fill="#ffffff" stroke="none" />
  <path d="M 854 47  C 857.08 47  859.5 49.42  859.5 52.5  C 859.5 55.58  857.08 58  854 58  C 850.92 58  848.5 55.58  848.5 52.5  C 848.5 49.42  850.92 47  854 47  Z " stroke-width="1" stroke="#797979" fill="none" />
  <path d="M 854 55.5  C 852.32 55.5  851 54.18  851 52.5  C 851 50.82  852.32 49.5  854 49.5  C 855.68 49.5  857 50.82  857 52.5  C 857 54.18  855.68 55.5  854 55.5  " fill-rule="nonzero" fill="#797979" stroke="none" />
</svg>