<?xml version="1.0" encoding="utf-8"?>
<svg version="1.1" xmlns:xlink="http://www.w3.org/1999/xlink" width="12px" height="12px" viewBox="240 46.5  12 12" xmlns="http://www.w3.org/2000/svg">
  <path d="M 246 46.5  C 249.36 46.5  252 49.14  252 52.5  C 252 55.86  249.36 58.5  246 58.5  C 242.64 58.5  240 55.86  240 52.5  C 240 49.14  242.64 46.5  246 46.5  Z " fill-rule="nonzero" fill="#ffffff" stroke="none" />
  <path d="M 246 47  C 249.08 47  251.5 49.42  251.5 52.5  C 251.5 55.58  249.08 58  246 58  C 242.92 58  240.5 55.58  240.5 52.5  C 240.5 49.42  242.92 47  246 47  Z " stroke-width="1" stroke="#797979" fill="none" />
  <path d="M 246 55.5  C 244.32 55.5  243 54.18  243 52.5  C 243 50.82  244.32 49.5  246 49.5  C 247.68 49.5  249 50.82  249 52.5  C 249 54.18  247.68 55.5  246 55.5  " fill-rule="nonzero" fill="#797979" stroke="none" />
</svg>