<?xml version="1.0" encoding="utf-8"?>
<svg version="1.1" xmlns:xlink="http://www.w3.org/1999/xlink" width="12px" height="12px" viewBox="80 46.5  12 12" xmlns="http://www.w3.org/2000/svg">
  <path d="M 86 46.5  C 89.36 46.5  92 49.14  92 52.5  C 92 55.86  89.36 58.5  86 58.5  C 82.64 58.5  80 55.86  80 52.5  C 80 49.14  82.64 46.5  86 46.5  Z " fill-rule="nonzero" fill="#ffffff" stroke="none" />
  <path d="M 86 47  C 89.08 47  91.5 49.42  91.5 52.5  C 91.5 55.58  89.08 58  86 58  C 82.92 58  80.5 55.58  80.5 52.5  C 80.5 49.42  82.92 47  86 47  Z " stroke-width="1" stroke="#797979" fill="none" />
  <path d="M 86 55.5  C 84.32 55.5  83 54.18  83 52.5  C 83 50.82  84.32 49.5  86 49.5  C 87.68 49.5  89 50.82  89 52.5  C 89 54.18  87.68 55.5  86 55.5  " fill-rule="nonzero" fill="#797979" stroke="none" />
</svg>