<?xml version="1.0" encoding="utf-8"?>
<svg version="1.1" xmlns:xlink="http://www.w3.org/1999/xlink" width="12px" height="12px" viewBox="663 46.5  12 12" xmlns="http://www.w3.org/2000/svg">
  <path d="M 669 46.5  C 672.36 46.5  675 49.14  675 52.5  C 675 55.86  672.36 58.5  669 58.5  C 665.64 58.5  663 55.86  663 52.5  C 663 49.14  665.64 46.5  669 46.5  Z " fill-rule="nonzero" fill="#ffffff" stroke="none" />
  <path d="M 669 47  C 672.08 47  674.5 49.42  674.5 52.5  C 674.5 55.58  672.08 58  669 58  C 665.92 58  663.5 55.58  663.5 52.5  C 663.5 49.42  665.92 47  669 47  Z " stroke-width="1" stroke="#797979" fill="none" />
  <path d="M 669 55.5  C 667.32 55.5  666 54.18  666 52.5  C 666 50.82  667.32 49.5  669 49.5  C 670.68 49.5  672 50.82  672 52.5  C 672 54.18  670.68 55.5  669 55.5  " fill-rule="nonzero" fill="#797979" stroke="none" />
</svg>