<?xml version="1.0" encoding="utf-8"?>
<svg version="1.1" xmlns:xlink="http://www.w3.org/1999/xlink" width="12px" height="12px" viewBox="151 300.5  12 12" xmlns="http://www.w3.org/2000/svg">
  <path d="M 157 300.5  C 160.36 300.5  163 303.14  163 306.5  C 163 309.86  160.36 312.5  157 312.5  C 153.64 312.5  151 309.86  151 306.5  C 151 303.14  153.64 300.5  157 300.5  Z " fill-rule="nonzero" fill="#ffffff" stroke="none" />
  <path d="M 157 301  C 160.08 301  162.5 303.42  162.5 306.5  C 162.5 309.58  160.08 312  157 312  C 153.92 312  151.5 309.58  151.5 306.5  C 151.5 303.42  153.92 301  157 301  Z " stroke-width="1" stroke="#797979" fill="none" />
  <path d="M 157 309.5  C 155.32 309.5  154 308.18  154 306.5  C 154 304.82  155.32 303.5  157 303.5  C 158.68 303.5  160 304.82  160 306.5  C 160 308.18  158.68 309.5  157 309.5  " fill-rule="nonzero" fill="#797979" stroke="none" />
</svg>