<?xml version="1.0" encoding="utf-8"?>
<svg version="1.1" xmlns:xlink="http://www.w3.org/1999/xlink" width="12px" height="12px" viewBox="497 300.5  12 12" xmlns="http://www.w3.org/2000/svg">
  <path d="M 503 300.5  C 506.36 300.5  509 303.14  509 306.5  C 509 309.86  506.36 312.5  503 312.5  C 499.64 312.5  497 309.86  497 306.5  C 497 303.14  499.64 300.5  503 300.5  Z " fill-rule="nonzero" fill="#ffffff" stroke="none" />
  <path d="M 503 301  C 506.08 301  508.5 303.42  508.5 306.5  C 508.5 309.58  506.08 312  503 312  C 499.92 312  497.5 309.58  497.5 306.5  C 497.5 303.42  499.92 301  503 301  Z " stroke-width="1" stroke="#797979" fill="none" />
  <path d="M 503 309.5  C 501.32 309.5  500 308.18  500 306.5  C 500 304.82  501.32 303.5  503 303.5  C 504.68 303.5  506 304.82  506 306.5  C 506 308.18  504.68 309.5  503 309.5  " fill-rule="nonzero" fill="#797979" stroke="none" />
</svg>