<?xml version="1.0" encoding="utf-8"?>
<svg version="1.1" xmlns:xlink="http://www.w3.org/1999/xlink" width="12px" height="12px" viewBox="243 300.5  12 12" xmlns="http://www.w3.org/2000/svg">
  <path d="M 249 300.5  C 252.36 300.5  255 303.14  255 306.5  C 255 309.86  252.36 312.5  249 312.5  C 245.64 312.5  243 309.86  243 306.5  C 243 303.14  245.64 300.5  249 300.5  Z " fill-rule="nonzero" fill="#ffffff" stroke="none" />
  <path d="M 249 301  C 252.08 301  254.5 303.42  254.5 306.5  C 254.5 309.58  252.08 312  249 312  C 245.92 312  243.5 309.58  243.5 306.5  C 243.5 303.42  245.92 301  249 301  Z " stroke-width="1" stroke="#797979" fill="none" />
  <path d="M 249 309.5  C 247.32 309.5  246 308.18  246 306.5  C 246 304.82  247.32 303.5  249 303.5  C 250.68 303.5  252 304.82  252 306.5  C 252 308.18  250.68 309.5  249 309.5  " fill-rule="nonzero" fill="#797979" stroke="none" />
</svg>