<?xml version="1.0" encoding="utf-8"?>
<svg version="1.1" xmlns:xlink="http://www.w3.org/1999/xlink" width="12px" height="12px" viewBox="228 344.5  12 12" xmlns="http://www.w3.org/2000/svg">
  <path d="M 234 344.5  C 237.36 344.5  240 347.14  240 350.5  C 240 353.86  237.36 356.5  234 356.5  C 230.64 356.5  228 353.86  228 350.5  C 228 347.14  230.64 344.5  234 344.5  Z " fill-rule="nonzero" fill="#ffffff" stroke="none" />
  <path d="M 234 345  C 237.08 345  239.5 347.42  239.5 350.5  C 239.5 353.58  237.08 356  234 356  C 230.92 356  228.5 353.58  228.5 350.5  C 228.5 347.42  230.92 345  234 345  Z " stroke-width="1" stroke="#d9001b" fill="none" />
  <path d="M 234 353.5  C 232.32 353.5  231 352.18  231 350.5  C 231 348.82  232.32 347.5  234 347.5  C 235.68 347.5  237 348.82  237 350.5  C 237 352.18  235.68 353.5  234 353.5  " fill-rule="nonzero" fill="#d9001b" stroke="none" />
</svg>