<?xml version="1.0" encoding="utf-8"?>
<svg version="1.1" xmlns:xlink="http://www.w3.org/1999/xlink" width="12px" height="12px" viewBox="295 344.5  12 12" xmlns="http://www.w3.org/2000/svg">
  <path d="M 301 344.5  C 304.36 344.5  307 347.14  307 350.5  C 307 353.86  304.36 356.5  301 356.5  C 297.64 356.5  295 353.86  295 350.5  C 295 347.14  297.64 344.5  301 344.5  Z " fill-rule="nonzero" fill="#ffffff" stroke="none" />
  <path d="M 301 345  C 304.08 345  306.5 347.42  306.5 350.5  C 306.5 353.58  304.08 356  301 356  C 297.92 356  295.5 353.58  295.5 350.5  C 295.5 347.42  297.92 345  301 345  Z " stroke-width="1" stroke="#d9001b" fill="none" />
  <path d="M 301 353.5  C 299.32 353.5  298 352.18  298 350.5  C 298 348.82  299.32 347.5  301 347.5  C 302.68 347.5  304 348.82  304 350.5  C 304 352.18  302.68 353.5  301 353.5  " fill-rule="nonzero" fill="#d9001b" stroke="none" />
</svg>