<?xml version="1.0" encoding="utf-8"?>
<svg version="1.1" xmlns:xlink="http://www.w3.org/1999/xlink" width="12px" height="12px" viewBox="353 344.5  12 12" xmlns="http://www.w3.org/2000/svg">
  <path d="M 359 344.5  C 362.36 344.5  365 347.14  365 350.5  C 365 353.86  362.36 356.5  359 356.5  C 355.64 356.5  353 353.86  353 350.5  C 353 347.14  355.64 344.5  359 344.5  Z " fill-rule="nonzero" fill="#ffffff" stroke="none" />
  <path d="M 359 345  C 362.08 345  364.5 347.42  364.5 350.5  C 364.5 353.58  362.08 356  359 356  C 355.92 356  353.5 353.58  353.5 350.5  C 353.5 347.42  355.92 345  359 345  Z " stroke-width="1" stroke="#d9001b" fill="none" />
  <path d="M 359 353.5  C 357.32 353.5  356 352.18  356 350.5  C 356 348.82  357.32 347.5  359 347.5  C 360.68 347.5  362 348.82  362 350.5  C 362 352.18  360.68 353.5  359 353.5  " fill-rule="nonzero" fill="#d9001b" stroke="none" />
</svg>