<?xml version="1.0" encoding="utf-8"?>
<svg version="1.1" xmlns:xlink="http://www.w3.org/1999/xlink" width="12px" height="12px" viewBox="333 237.5  12 12" xmlns="http://www.w3.org/2000/svg">
  <path d="M 339 237.5  C 342.36 237.5  345 240.14  345 243.5  C 345 246.86  342.36 249.5  339 249.5  C 335.64 249.5  333 246.86  333 243.5  C 333 240.14  335.64 237.5  339 237.5  Z " fill-rule="nonzero" fill="#ffffff" stroke="none" />
  <path d="M 339 238  C 342.08 238  344.5 240.42  344.5 243.5  C 344.5 246.58  342.08 249  339 249  C 335.92 249  333.5 246.58  333.5 243.5  C 333.5 240.42  335.92 238  339 238  Z " stroke-width="1" stroke="#797979" fill="none" />
  <path d="M 339 246.5  C 337.32 246.5  336 245.18  336 243.5  C 336 241.82  337.32 240.5  339 240.5  C 340.68 240.5  342 241.82  342 243.5  C 342 245.18  340.68 246.5  339 246.5  " fill-rule="nonzero" fill="#797979" stroke="none" />
</svg>