<?xml version="1.0" encoding="utf-8"?>
<svg version="1.1" xmlns:xlink="http://www.w3.org/1999/xlink" width="12px" height="12px" viewBox="404 344.5  12 12" xmlns="http://www.w3.org/2000/svg">
  <path d="M 410 344.5  C 413.36 344.5  416 347.14  416 350.5  C 416 353.86  413.36 356.5  410 356.5  C 406.64 356.5  404 353.86  404 350.5  C 404 347.14  406.64 344.5  410 344.5  Z " fill-rule="nonzero" fill="#ffffff" stroke="none" />
  <path d="M 410 345  C 413.08 345  415.5 347.42  415.5 350.5  C 415.5 353.58  413.08 356  410 356  C 406.92 356  404.5 353.58  404.5 350.5  C 404.5 347.42  406.92 345  410 345  Z " stroke-width="1" stroke="#797979" fill="none" />
  <path d="M 410 353.5  C 408.32 353.5  407 352.18  407 350.5  C 407 348.82  408.32 347.5  410 347.5  C 411.68 347.5  413 348.82  413 350.5  C 413 352.18  411.68 353.5  410 353.5  " fill-rule="nonzero" fill="#797979" stroke="none" />
</svg>